<svg id="Calque_1" data-name="Calque 1" xmlns="http://www.w3.org/2000/svg" viewBox="0 0 2450.94 2376.3"><defs><style>.cls-1{fill:#6a6a6a;}</style></defs><title>iconHome</title><path class="cls-1" d="M2917.15,3831c0-223.12-2.65-436,1.48-648.73,1.38-70.84-21.53-94.09-91.37-91.17-111.22,4.65-222.92,4.57-334.15,0-68.58-2.81-87.15,23.29-86.08,89,3.45,213,1.29,426,1.29,651.05H2257.11c-128.38,0-256.77-1.37-385.11.63-53.1.82-73.4-20.36-73.24-73.09,1.09-360.77-.18-721.54,2-1082.3.17-27.62,14.29-62.41,33.94-81.54C2095,2341.46,2357.87,2090.78,2618.67,1838c34.86-33.8,57.72-29.54,90.29,2.25,261.65,255.4,525.08,509,786.11,765,18,17.64,29.63,50.41,29.77,76.22,1.91,358.34,1.11,716.69,1.54,1075,0,40.27-5.56,74.3-56.2,74.38C3289,3831.19,3107.74,3831,2917.15,3831Z" transform="translate(-1435.39 -1455.5)"/><path class="cls-1" d="M1725.71,1743.51h365v222.84c31.79-28.51,50.7-44.64,68.7-61.74q213.24-202.71,426.3-405.6c61.29-58,92.94-58,154.31.18q550.67,522.54,1099.92,1046.57c22.61,21.62,42.06,54.41,46.27,84.35,2.45,17.37-26.71,53.86-44.8,56.08-28.56,3.5-67.68-5.9-88.56-24.94-134.19-122.32-264.67-248.7-396.3-373.83q-323.8-307.82-647.61-615.63c-13.89-13.18-29.13-24.94-47.86-40.86-127.61,120.84-254,240.26-380.13,360q-345,327.69-689.69,655.7c-5.27,5-10.75,9.78-16,14.83-37.54,36.37-78.54,53.07-119.21,8.08-37.79-41.82-18.67-79.81,16.8-113.51,72-68.37,145.74-135.06,214.27-206.73,20.53-21.47,36.33-57,36.92-86.4C1727.46,2091.62,1725.71,1920.21,1725.71,1743.51Z" transform="translate(-1435.39 -1455.5)"/></svg>